<?xml version="1.0"?>
<svg xmlns="http://www.w3.org/2000/svg" viewBox="0 0 32 32">
  <path
    style="text-indent:0;text-align:start;line-height:normal;text-transform:none;block-progression:tb;-inkscape-font-specification:Sans;color:#fff;background-color:#fff;"
    d="M 16 3 C 14.062759 3 12.571952 3.5083298 11.5 4.34375 C 10.428048 5.1791702 9.8121166 6.3027599 9.375 7.34375 C 8.9378834 8.3847401 8.6578295 9.3791257 8.375 10.09375 C 8.0921705 10.808374 7.8577594 11.084983 7.65625 11.15625 C 4.8277539 12.158372 3 14.863634 3 18 L 3 19 L 4 19 C 5.3481588 19 6.0027574 19.282696 6.3125 19.53125 C 6.6222426 19.779804 6.7429881 20.067438 6.8125 20.5625 C 6.882012 21.057562 6.846338 21.665179 6.9375 22.34375 C 6.983081 22.683035 7.0565854 23.067453 7.28125 23.4375 C 7.5059146 23.807547 7.9197772 24.129658 8.375 24.28125 C 9.4350466 24.634599 10.111981 24.853573 10.53125 25.09375 C 10.950519 25.333927 11.199138 25.547407 11.53125 26.25 C 11.846724 26.918492 12.275172 27.650145 13.03125 28.1875 C 13.787328 28.724855 14.810227 29.016419 16.09375 29 C 18.19592 28.97297 19.449068 27.88715 20.09375 26.9375 C 20.416091 26.462675 20.642927 26.050047 20.84375 25.78125 C 21.044573 25.512453 21.163564 25.407284 21.375 25.34375 C 22.728771 24.93634 23.604966 24.250259 24.09375 23.46875 C 24.582534 22.687241 24.674925 21.920287 24.8125 21.40625 C 24.950075 20.892213 25.047345 20.689052 25.375 20.46875 C 25.702655 20.248448 26.454534 20 28 20 L 29 20 L 29 19 C 29 17.620949 29.04795 16.017046 28.4375 14.5 C 27.827047 12.982954 26.443304 11.644607 24.15625 11.125 C 24.131623 11.119404 24.104224 11.134428 24 11 C 23.895776 10.865572 23.733454 10.599668 23.59375 10.25 C 23.314342 9.5506645 23.043989 8.5285649 22.59375 7.46875 C 22.143511 6.4089351 21.502866 5.2708416 20.4375 4.40625 C 19.372134 3.5416584 17.904741 3 16 3 z M 16 5 C 17.537759 5 18.481397 5.3957166 19.1875 5.96875 C 19.893603 6.5417834 20.367364 7.3493149 20.75 8.25 C 21.132636 9.1506851 21.402689 10.13071 21.75 11 C 21.923655 11.434645 22.111321 11.83835 22.40625 12.21875 C 22.701179 12.59915 23.135627 12.968346 23.6875 13.09375 C 25.489446 13.503143 26.156703 14.241546 26.5625 15.25 C 26.870379 16.015115 26.880813 17.064724 26.90625 18.09375 C 25.796633 18.18809 24.885646 18.385118 24.25 18.8125 C 23.406405 19.379698 23.050425 20.250787 22.875 20.90625 C 22.699575 21.561713 22.634216 22.041759 22.40625 22.40625 C 22.178284 22.770741 21.809979 23.12791 20.78125 23.4375 C 20.069186 23.651466 19.55674 24.141359 19.21875 24.59375 C 18.88076 25.046141 18.676409 25.460575 18.4375 25.8125 C 17.959682 26.51635 17.61533 26.980032 16.0625 27 C 15.079023 27.01258 14.551422 26.821145 14.1875 26.5625 C 13.823578 26.303855 13.560026 25.930758 13.3125 25.40625 C 12.865612 24.460843 12.270231 23.767073 11.53125 23.34375 C 10.792269 22.920427 10.021953 22.715651 9 22.375 C 8.9914693 22.360949 8.9320751 22.28598 8.90625 22.09375 C 8.8545998 21.70929 8.8869881 21.034313 8.78125 20.28125 C 8.6755119 19.528187 8.3665699 18.613978 7.5625 17.96875 C 6.9986091 17.516255 6.1943306 17.288471 5.25 17.15625 C 5.543405 15.231765 6.5530899 13.6546 8.3125 13.03125 C 9.3734906 12.656017 9.898392 11.732157 10.25 10.84375 C 10.601608 9.9553431 10.852117 8.9668849 11.21875 8.09375 C 11.585383 7.2206151 12.020265 6.481861 12.71875 5.9375 C 13.417235 5.393139 14.402741 5 16 5 z M 13 9 C 12.447715 9 12 9.6715729 12 10.5 C 12 11.328427 12.447715 12 13 12 C 13.552285 12 14 11.328427 14 10.5 C 14 9.6715729 13.552285 9 13 9 z M 17 9 C 16.447715 9 16 9.6715729 16 10.5 C 16 11.328427 16.447715 12 17 12 C 17.552285 12 18 11.328427 18 10.5 C 18 9.6715729 17.552285 9 17 9 z"
    overflow="visible" font-family="Sans"/>
</svg>
